REM DIRINDEX 1\2\3,1\2\4,1\2\5,1\2\6
REM DIRNAME cjc157,folder01,folder02,folder03,folder04,folder05
TITLE ""
FILE "020 020.mp3" MP3
  TRACK 01 AUDIO
    TITLE "0:"
    INDEX 01 00:00:00
  TRACK 02 AUDIO
    TITLE "3:cjc157_0727"
    INDEX 01 00:00:13
  TRACK 03 AUDIO
    TITLE "0:"
    INDEX 01 00:01:32
  TRACK 04 AUDIO
    TITLE "4:cjc157_0728"
    INDEX 01 00:02:00
  TRACK 05 AUDIO
    TITLE "0:"
    INDEX 01 00:03:15
  TRACK 06 AUDIO
    TITLE "5:cjc157_0729"
    INDEX 01 00:03:57
  TRACK 07 AUDIO
    TITLE "0:"
    INDEX 01 00:05:54
  TRACK 08 AUDIO
    TITLE "5:cjc157_0730"
    INDEX 01 00:06:24
  TRACK 09 AUDIO
    TITLE "0:"
    INDEX 01 00:09:24
  TRACK 10 AUDIO
    TITLE "3:cjc157_0731"
    INDEX 01 00:09:65
  TRACK 11 AUDIO
    TITLE "0:"
    INDEX 01 00:11:13
  TRACK 12 AUDIO
    TITLE "4:cjc157_0732"
    INDEX 01 00:11:60
  TRACK 13 AUDIO
    TITLE "0:"
    INDEX 01 00:13:04
  TRACK 14 AUDIO
    TITLE "5:cjc157_0733"
    INDEX 01 00:13:49
  TRACK 15 AUDIO
    TITLE "0:"
    INDEX 01 00:15:62
  TRACK 16 AUDIO
    TITLE "5:cjc157_0734"
    INDEX 01 00:16:32
  TRACK 17 AUDIO
    TITLE "0:"
    INDEX 01 00:19:60
  TRACK 18 AUDIO
    TITLE "5:cjc157_0735"
    INDEX 01 00:20:28
  TRACK 19 AUDIO
    TITLE "0:"
    INDEX 01 00:22:44
  TRACK 20 AUDIO
    TITLE "3:cjc157_0736"
    INDEX 01 00:23:14
  TRACK 21 AUDIO
    TITLE "0:"
    INDEX 01 00:24:37
  TRACK 22 AUDIO
    TITLE "4:cjc157_0737"
    INDEX 01 00:25:07
  TRACK 23 AUDIO
    TITLE "0:"
    INDEX 01 00:26:38
  TRACK 24 AUDIO
    TITLE "5:cjc157_0738"
    INDEX 01 00:27:06
  TRACK 25 AUDIO
    TITLE "0:"
    INDEX 01 00:29:13
  TRACK 26 AUDIO
    TITLE "5:cjc157_0739"
    INDEX 01 00:29:60
  TRACK 27 AUDIO
    TITLE "0:"
    INDEX 01 00:32:21
  TRACK 28 AUDIO
    TITLE "3:cjc157_0740"
    INDEX 01 00:32:64
  TRACK 29 AUDIO
    TITLE "0:"
    INDEX 01 00:34:28
  TRACK 30 AUDIO
    TITLE "4:cjc157_0741"
    INDEX 01 00:34:67
  TRACK 31 AUDIO
    TITLE "0:"
    INDEX 01 00:36:05
  TRACK 32 AUDIO
    TITLE "5:cjc157_0742"
    INDEX 01 00:36:50
  TRACK 33 AUDIO
    TITLE "0:"
    INDEX 01 00:38:49
  TRACK 34 AUDIO
    TITLE "3:cjc157_0743"
    INDEX 01 00:39:21
  TRACK 35 AUDIO
    TITLE "0:"
    INDEX 01 00:40:66
  TRACK 36 AUDIO
    TITLE "4:cjc157_0744"
    INDEX 01 00:41:44
  TRACK 37 AUDIO
    TITLE "0:"
    INDEX 01 00:42:49
  TRACK 38 AUDIO
    TITLE "5:cjc157_0745"
    INDEX 01 00:43:17
  TRACK 39 AUDIO
    TITLE "0:"
    INDEX 01 00:44:73
  TRACK 40 AUDIO
    TITLE "5:cjc157_0746"
    INDEX 01 00:45:45
  TRACK 41 AUDIO
    TITLE "0:"
    INDEX 01 00:47:13
  TRACK 42 AUDIO
    TITLE "3:cjc157_0747"
    INDEX 01 00:47:58
  TRACK 43 AUDIO
    TITLE "0:"
    INDEX 01 00:48:69
  TRACK 44 AUDIO
    TITLE "4:cjc157_0748"
    INDEX 01 00:49:43
  TRACK 45 AUDIO
    TITLE "0:"
    INDEX 01 00:50:74
  TRACK 46 AUDIO
    TITLE "5:cjc157_0749"
    INDEX 01 00:51:42
  TRACK 47 AUDIO
    TITLE "0:"
    INDEX 01 00:53:27
  TRACK 48 AUDIO
    TITLE "5:cjc157_0750"
    INDEX 01 00:53:70
  TRACK 49 AUDIO
    TITLE "0:"
    INDEX 01 00:55:40
  TRACK 50 AUDIO
    TITLE "3:cjc157_0751"
    INDEX 01 00:56:10
  TRACK 51 AUDIO
    TITLE "0:"
    INDEX 01 00:58:03
  TRACK 52 AUDIO
    TITLE "4:cjc157_0752"
    INDEX 01 00:58:50
  TRACK 53 AUDIO
    TITLE "0:"
    INDEX 01 00:59:63
  TRACK 54 AUDIO
    TITLE "5:cjc157_0753"
    INDEX 01 01:00:33
  TRACK 55 AUDIO
    TITLE "0:"
    INDEX 01 01:02:65
  TRACK 56 AUDIO
    TITLE "5:cjc157_0754"
    INDEX 01 01:03:31
  TRACK 57 AUDIO
    TITLE "0:"
    INDEX 01 01:05:42
  TRACK 58 AUDIO
    TITLE "5:cjc157_0755"
    INDEX 01 01:06:12
  TRACK 59 AUDIO
    TITLE "0:"
    INDEX 01 01:08:66
  TRACK 60 AUDIO
    TITLE "3:cjc157_0756"
    INDEX 01 01:09:36
  TRACK 61 AUDIO
    TITLE "0:"
    INDEX 01 01:10:57
  TRACK 62 AUDIO
    TITLE "4:cjc157_0757"
    INDEX 01 01:11:29
  TRACK 63 AUDIO
    TITLE "0:"
    INDEX 01 01:12:38
  TRACK 64 AUDIO
    TITLE "5:cjc157_0758"
    INDEX 01 01:13:04
  TRACK 65 AUDIO
    TITLE "0:"
    INDEX 01 01:14:49
  TRACK 66 AUDIO
    TITLE "5:cjc157_0759"
    INDEX 01 01:15:17
  TRACK 67 AUDIO
    TITLE "0:"
    INDEX 01 01:16:67
  TRACK 68 AUDIO
    TITLE "3:cjc157_0760"
    INDEX 01 01:17:35
  TRACK 69 AUDIO
    TITLE "0:"
    INDEX 01 01:19:03
  TRACK 70 AUDIO
    TITLE "4:cjc157_0761"
    INDEX 01 01:19:52
  TRACK 71 AUDIO
    TITLE "0:"
    INDEX 01 01:22:66
  TRACK 72 AUDIO
    TITLE "5:cjc157_0762"
    INDEX 01 01:23:40
  TRACK 73 AUDIO
    TITLE "0:"
    INDEX 01 01:25:31
  TRACK 74 AUDIO
    TITLE "5:cjc157_0763"
    INDEX 01 01:25:74
  TRACK 75 AUDIO
    TITLE "0:"
    INDEX 01 01:28:33
  TRACK 76 AUDIO
    TITLE "3:cjc157_0764"
    INDEX 01 01:29:05
  TRACK 77 AUDIO
    TITLE "0:"
    INDEX 01 01:30:15
  TRACK 78 AUDIO
    TITLE "4:cjc157_0765"
    INDEX 01 01:30:60
  TRACK 79 AUDIO
    TITLE "0:"
    INDEX 01 01:31:63
  TRACK 80 AUDIO
    TITLE "5:cjc157_0766"
    INDEX 01 01:32:37
  TRACK 81 AUDIO
    TITLE "0:"
    INDEX 01 01:34:73
  TRACK 82 AUDIO
    TITLE "5:cjc157_0767"
    INDEX 01 01:35:45
  TRACK 83 AUDIO
    TITLE "0:"
    INDEX 01 01:37:30
